<svg width="48" height="49" viewBox="0 0 48 49" fill="none" xmlns="http://www.w3.org/2000/svg">
<g id="vuesax/linear/dollar-circle">
<g id="dollar-circle">
<path id="Vector" d="M17.3438 29.4097C17.3438 31.9897 19.3238 34.0697 21.7838 34.0697H26.8037C28.9437 34.0697 30.6838 32.2497 30.6838 30.0097C30.6838 27.5697 29.6238 26.7097 28.0438 26.1497L19.9837 23.3497C18.4037 22.7897 17.3438 21.9297 17.3438 19.4897C17.3438 17.2497 19.0837 15.4297 21.2237 15.4297H26.2437C28.7037 15.4297 30.6838 17.5097 30.6838 20.0897" stroke="#292D32" stroke-width="1.5" stroke-linecap="round" stroke-linejoin="round"/>
<path id="Vector_2" d="M24 12.75V36.75" stroke="#292D32" stroke-width="1.5" stroke-linecap="round" stroke-linejoin="round"/>
<path id="Vector_3" d="M24 44.75C35.0457 44.75 44 35.7957 44 24.75C44 13.7043 35.0457 4.75 24 4.75C12.9543 4.75 4 13.7043 4 24.75C4 35.7957 12.9543 44.75 24 44.75Z" stroke="#292D32" stroke-width="1.5" stroke-linecap="round" stroke-linejoin="round"/>
</g>
</g>
</svg>
