<svg width="48" height="49" viewBox="0 0 48 49" fill="none" xmlns="http://www.w3.org/2000/svg">
<g id="vuesax/linear/like">
<g id="like">
<path id="Vector" d="M14.96 37.4499L21.16 42.2499C21.96 43.0499 23.76 43.4499 24.96 43.4499H32.56C34.96 43.4499 37.56 41.6499 38.16 39.2499L42.96 24.6499C43.96 21.8499 42.16 19.4499 39.16 19.4499H31.16C29.96 19.4499 28.96 18.4499 29.16 17.0499L30.16 10.6499C30.56 8.84994 29.36 6.84994 27.56 6.24994C25.96 5.64994 23.96 6.44994 23.16 7.64994L14.96 19.8499" stroke="#292D32" stroke-width="1.5" stroke-miterlimit="10"/>
<path id="Vector_2" d="M4.76001 37.4498V17.8498C4.76001 15.0498 5.96001 14.0498 8.76001 14.0498H10.76C13.56 14.0498 14.76 15.0498 14.76 17.8498V37.4498C14.76 40.2498 13.56 41.2498 10.76 41.2498H8.76001C5.96001 41.2498 4.76001 40.2498 4.76001 37.4498Z" stroke="#292D32" stroke-width="1.5" stroke-linecap="round" stroke-linejoin="round"/>
</g>
</g>
</svg>
