<svg width="233" height="245" viewBox="0 0 233 245" fill="none" xmlns="http://www.w3.org/2000/svg">
<g id="Group 590">
<ellipse id="Ellipse 110" cx="116.5" cy="95.1609" rx="116.5" ry="95.1609" fill="#F1F1F1"/>
<g id="Group 23">
<rect id="Rectangle 34" x="0.954015" y="1.02365" width="114.41" height="132.616" rx="7" transform="matrix(1.00681 0.0359066 -0.0527964 0.987742 69.2878 91.8118)" fill="#EEEEEE" stroke="#999999" stroke-width="2"/>
<rect id="Rectangle 23" x="-1.15339" y="-0.880338" width="118.982" height="135.656" rx="9" transform="matrix(0.994267 -0.106921 0.159121 0.987259 4.95378 86.4306)" fill="#FAFAFA" stroke="#999999" stroke-width="2"/>
<path id="Rectangle 24" d="M6.09328 94.4633C5.39024 90.1013 8.3815 86.1822 12.7745 85.7098L113.177 74.9127C117.57 74.4403 121.701 77.5934 122.404 81.9554L126.023 104.407L9.71185 116.914L6.09328 94.4633Z" fill="#EEEEEE"/>
<rect id="Rectangle 25" width="4.00969" height="16.2474" rx="2.00485" transform="matrix(0.159121 0.987259 -0.994267 0.106921 146.424 78.0493)" fill="#999999"/>
<rect id="Rectangle 26" width="4.87424" height="13.3656" rx="2.43712" transform="matrix(0.994267 -0.106921 0.159121 0.987259 101.787 56.0015)" fill="#999999"/>
<rect id="Rectangle 27" width="4.46295" height="14.8765" rx="2.23147" transform="matrix(0.868932 0.544627 -0.666755 0.709771 130.428 59.6335)" fill="#999999"/>
<rect id="Rectangle 28" width="94.2352" height="5.34626" rx="2" transform="matrix(0.994267 -0.106921 0.159121 0.987259 21.8691 120.977)" fill="#DCDCDC"/>
<rect id="Rectangle 30" width="94.2352" height="5.34626" rx="2" transform="matrix(0.994267 -0.106921 0.159121 0.987259 26.125 147.367)" fill="#DCDCDC"/>
<rect id="Rectangle 32" width="94.2352" height="5.34626" rx="2" transform="matrix(0.994267 -0.106921 0.159121 0.987259 30.3779 173.758)" fill="#DCDCDC"/>
<rect id="Rectangle 29" width="34.1196" height="5.34626" rx="2" transform="matrix(0.994267 -0.106921 0.159121 0.987259 23.5713 131.533)" fill="#EEEEEE"/>
<rect id="Rectangle 31" width="34.1196" height="5.34626" rx="2" transform="matrix(0.994267 -0.106921 0.159121 0.987259 27.8262 157.924)" fill="#EEEEEE"/>
<rect id="Rectangle 33" width="34.1196" height="5.34626" rx="2" transform="matrix(0.994267 -0.106921 0.159121 0.987259 32.0791 184.314)" fill="#EEEEEE"/>
</g>
</g>
</svg>
