<svg width="23" height="24" viewBox="0 0 23 24" fill="none" xmlns="http://www.w3.org/2000/svg">
<g id="vuesax/bold/home-2">
<g id="home-2">
<path id="Vector" d="M18.9923 6.95655L13.6081 3.18947C12.1405 2.16124 9.88771 2.21732 8.47623 3.31099L3.79309 6.96589C2.85833 7.69501 2.11987 9.19062 2.11987 10.3684V16.8182C2.11987 19.2019 4.05482 21.1462 6.43846 21.1462H16.5151C18.8988 21.1462 20.8337 19.2112 20.8337 16.8276V10.4899C20.8337 9.22801 20.0205 7.67631 18.9923 6.95655ZM12.1779 17.4071C12.1779 17.7904 11.8601 18.1082 11.4768 18.1082C11.0936 18.1082 10.7757 17.7904 10.7757 17.4071V14.6029C10.7757 14.2196 11.0936 13.9018 11.4768 13.9018C11.8601 13.9018 12.1779 14.2196 12.1779 14.6029V17.4071Z" fill="#4B5B65"/>
</g>
</g>
</svg>
