<svg width="22" height="22" viewBox="0 0 22 22" fill="none" xmlns="http://www.w3.org/2000/svg">
<g id="Group">
<path id="Vector" d="M6.1625 7.22754L2.285 11.0975C1.13 12.2525 0.5 13.7825 0.5 15.41C0.5 17.03 1.13 18.56 2.285 19.715C3.44 20.87 4.97 21.5 6.59 21.5C8.2175 21.5 9.7475 20.87 10.9025 19.715L14.78 15.845L6.1625 7.22754Z" fill="#E4EDF2"/>
<path id="Vector_2" d="M19.7151 2.285C18.5601 1.13 17.0301 0.5 15.4101 0.5C13.7826 0.5 12.2526 1.13 11.0976 2.285L6.1626 7.2275L14.7801 15.845L19.7151 10.9025C20.8626 9.7475 21.5001 8.2175 21.5001 6.59C21.5001 4.97 20.8626 3.44 19.7151 2.285ZM17.8326 3.72875C17.6863 3.87575 17.4928 3.95 17.3001 3.95C17.1088 3.95 16.9176 3.87725 16.7721 3.7325C16.0206 2.987 14.7988 2.987 14.0488 3.7325C13.7541 4.02425 13.2808 4.022 12.9876 3.72875C12.6958 3.43475 12.6973 2.96 12.9913 2.66825C14.3256 1.34375 16.4953 1.3445 17.8281 2.66825C18.1228 2.95925 18.1243 3.43475 17.8326 3.72875Z" fill="#55C1FA"/>
<path id="Vector_3" d="M12.9913 2.66827C12.6973 2.96002 12.6958 3.43477 12.9876 3.72877C13.2808 4.02202 13.7541 4.02427 14.0488 3.73252C14.7988 2.98777 16.0206 2.98702 16.7721 3.73252C16.9183 3.87727 17.1096 3.95002 17.3001 3.95002C17.4928 3.95002 17.6863 3.87577 17.8326 3.72877C18.1243 3.43477 18.1228 2.96002 17.8281 2.66752C16.4953 1.34377 14.3263 1.34377 12.9913 2.66827Z" fill="white"/>
</g>
</svg>
