<svg width="21" height="21" viewBox="0 0 21 21" fill="none" xmlns="http://www.w3.org/2000/svg">
<path d="M2.1665 2.16666H3.61651C4.51651 2.16666 5.22484 2.94166 5.14984 3.83332L4.45817 12.1333C4.3415 13.4916 5.4165 14.6583 6.78316 14.6583H15.6582C16.8582 14.6583 17.9082 13.675 17.9998 12.4833L18.4498 6.23333C18.5498 4.84999 17.4998 3.72499 16.1082 3.72499H5.34984" stroke="#292D32" stroke-width="1.5" stroke-miterlimit="10" stroke-linecap="round" stroke-linejoin="round"/>
<path d="M14.0417 18.8333C14.617 18.8333 15.0833 18.367 15.0833 17.7917C15.0833 17.2164 14.617 16.75 14.0417 16.75C13.4664 16.75 13 17.2164 13 17.7917C13 18.367 13.4664 18.8333 14.0417 18.8333Z" stroke="#292D32" stroke-width="1.5" stroke-miterlimit="10" stroke-linecap="round" stroke-linejoin="round"/>
<path d="M7.37516 18.8333C7.95046 18.8333 8.41683 18.367 8.41683 17.7917C8.41683 17.2164 7.95046 16.75 7.37516 16.75C6.79987 16.75 6.3335 17.2164 6.3335 17.7917C6.3335 18.367 6.79987 18.8333 7.37516 18.8333Z" stroke="#292D32" stroke-width="1.5" stroke-miterlimit="10" stroke-linecap="round" stroke-linejoin="round"/>
<path d="M8 7.16666H18" stroke="#292D32" stroke-width="1.5" stroke-miterlimit="10" stroke-linecap="round" stroke-linejoin="round"/>
</svg>
