<svg width="24" height="21" viewBox="0 0 24 21" fill="none" xmlns="http://www.w3.org/2000/svg">
<path d="M20.8401 2.85999C20.3294 2.349 19.7229 1.94364 19.0555 1.66708C18.388 1.39052 17.6726 1.24817 16.9501 1.24817C16.2276 1.24817 15.5122 1.39052 14.8448 1.66708C14.1773 1.94364 13.5709 2.349 13.0601 2.85999L12.0001 3.91999L10.9401 2.85999C9.90843 1.8283 8.50915 1.2487 7.05012 1.2487C5.59109 1.2487 4.19181 1.8283 3.16012 2.85999C2.12843 3.89169 1.54883 5.29096 1.54883 6.74999C1.54883 8.20903 2.12843 9.6083 3.16012 10.64L4.22012 11.7L12.0001 19.48L19.7801 11.7L20.8401 10.64C21.3511 10.1292 21.7565 9.52281 22.033 8.85535C22.3096 8.18789 22.4519 7.47248 22.4519 6.74999C22.4519 6.02751 22.3096 5.3121 22.033 4.64464C21.7565 3.97718 21.3511 3.37075 20.8401 2.85999V2.85999Z" stroke="#4B4B4B" stroke-width="2" stroke-linecap="round" stroke-linejoin="round"/>
</svg>
