<svg width="24" height="24" viewBox="0 0 24 24" fill="none" xmlns="http://www.w3.org/2000/svg">
<path d="M20.099 9.22C18.289 9.22 17.549 7.94 18.449 6.37C18.969 5.46 18.659 4.3 17.749 3.78L16.019 2.79C15.229 2.32 14.209 2.6 13.739 3.39L13.629 3.58C12.729 5.15 11.249 5.15 10.339 3.58L10.229 3.39C9.77902 2.6 8.75902 2.32 7.96902 2.79L6.23902 3.78C5.32902 4.3 5.01902 5.47 5.53902 6.38C6.44902 7.94 5.70902 9.22 3.89902 9.22C2.85902 9.22 1.99902 10.07 1.99902 11.12V12.88C1.99902 13.92 2.84902 14.78 3.89902 14.78C5.70902 14.78 6.44902 16.06 5.53902 17.63C5.01902 18.54 5.32902 19.7 6.23902 20.22L7.96902 21.21C8.75902 21.68 9.77902 21.4 10.249 20.61L10.359 20.42C11.259 18.85 12.739 18.85 13.649 20.42L13.759 20.61C14.229 21.4 15.249 21.68 16.039 21.21L17.769 20.22C18.679 19.7 18.989 18.53 18.469 17.63C17.559 16.06 18.299 14.78 20.109 14.78C21.149 14.78 22.009 13.93 22.009 12.88V11.12C21.999 10.08 21.149 9.22 20.099 9.22ZM11.999 15.25C10.209 15.25 8.74902 13.79 8.74902 12C8.74902 10.21 10.209 8.75 11.999 8.75C13.789 8.75 15.249 10.21 15.249 12C15.249 13.79 13.789 15.25 11.999 15.25Z" fill="white"/>
</svg>
