<svg width="24" height="24" viewBox="0 0 24 24" fill="none" xmlns="http://www.w3.org/2000/svg">
<g id="Google" clip-path="url(#clip0_2392_7532)">
<path id="Vector" d="M23.9873 12.2244C23.9873 11.2412 23.9057 10.5236 23.729 9.77954H12.239V14.2175H18.9834C18.8475 15.3204 18.1132 16.9814 16.4815 18.0975L16.4586 18.246L20.0915 20.9962L20.3432 21.0208C22.6547 18.9346 23.9873 15.8652 23.9873 12.2244Z" fill="#4285F4"/>
<path id="Vector_2" d="M12.239 23.9176C15.5432 23.9176 18.3171 22.8545 20.3432 21.0209L16.4814 18.0976C15.448 18.8018 14.0611 19.2934 12.239 19.2934C9.00283 19.2934 6.25615 17.2074 5.27703 14.324L5.13351 14.3359L1.35597 17.1927L1.30656 17.3269C3.31898 21.2334 7.45265 23.9176 12.239 23.9176Z" fill="#34A853"/>
<path id="Vector_3" d="M5.27704 14.324C5.01869 13.58 4.86917 12.7826 4.86917 11.9589C4.86917 11.135 5.01869 10.3378 5.26344 9.59366L5.2566 9.43519L1.43171 6.53247L1.30657 6.59064C0.477156 8.21174 0.00123596 10.0322 0.00123596 11.9589C0.00123596 13.8855 0.477156 15.7059 1.30657 17.327L5.27704 14.324Z" fill="#FBBC05"/>
<path id="Vector_4" d="M12.239 4.62403C14.537 4.62403 16.0871 5.59402 16.9709 6.40461L20.4247 3.10928C18.3036 1.1826 15.5432 0 12.239 0C7.45265 0 3.31898 2.68406 1.30656 6.59056L5.26344 9.59359C6.25615 6.7102 9.00283 4.62403 12.239 4.62403Z" fill="#EB4335"/>
</g>
<defs>
<clipPath id="clip0_2392_7532">
<rect width="24" height="24" fill="white"/>
</clipPath>
</defs>
</svg>
