<svg width="616" height="562" viewBox="0 0 616 562" fill="none" xmlns="http://www.w3.org/2000/svg">
<path d="M134.968 214.438C114.192 189.585 76.166 183.587 57.2702 196.208C38.3744 208.829 34.0338 243.125 54.8103 267.978C74.0414 290.982 108.883 297.256 128.074 288.637C128.012 288.906 128.009 289.184 128.063 289.454L129.145 294.235C129.228 294.6 129.413 294.939 129.683 295.222C129.954 295.504 130.301 295.72 130.691 295.849C131.081 295.978 131.502 296.015 131.913 295.958C132.324 295.901 132.712 295.751 133.04 295.522L142.202 289.124C142.53 288.895 142.787 288.595 142.948 288.252C143.11 287.91 143.171 287.536 143.125 287.166C143.08 286.796 142.929 286.443 142.688 286.14C142.447 285.837 142.124 285.594 141.748 285.434L136.819 283.339C136.646 283.27 136.464 283.219 136.277 283.187C151.069 269.208 154.241 237.492 134.968 214.438Z" fill="#CCCCCC"/>
<path d="M89.5232 205.054C99.6864 206.497 108.842 211.373 115.1 218.675C121.358 225.977 124.24 235.148 123.153 244.295C122.929 246.39 126.592 246.376 126.814 244.295C127.861 234.436 124.7 224.588 117.965 216.725C111.229 208.862 101.417 203.566 90.4965 201.899C88.192 201.549 87.2017 204.702 89.5232 205.054Z" fill="white"/>
<path d="M612.341 245.554C623.521 216.182 607.549 184.759 585.218 177.967C562.886 171.176 528.788 187.373 517.609 216.744C507.261 243.931 521.178 273.164 539.983 282.436C539.7 282.543 539.442 282.697 539.223 282.89L535.424 286.391C535.134 286.658 534.926 286.987 534.818 287.346C534.71 287.705 534.707 288.083 534.809 288.444C534.911 288.804 535.114 289.136 535.399 289.406C535.685 289.677 536.043 289.878 536.439 289.99L547.524 293.126C547.921 293.238 548.343 293.258 548.75 293.183C549.158 293.108 549.537 292.942 549.853 292.699C550.168 292.457 550.409 292.146 550.552 291.797C550.695 291.448 550.736 291.072 550.671 290.704L549.817 285.886C549.783 285.719 549.727 285.556 549.651 285.401C570.914 288.399 601.971 272.8 612.341 245.554Z" fill="#CCCCCC"/>
<path d="M595.295 206.746C599.712 215.054 600.391 224.56 597.193 233.303C593.995 242.046 587.164 249.358 578.11 253.729C576.051 254.749 578.135 257.441 580.181 256.428C589.869 251.624 597.168 243.724 600.613 234.312C604.058 224.9 603.395 214.672 598.757 205.678C597.777 203.782 594.308 204.835 595.295 206.746Z" fill="white"/>
<path d="M349.699 54.19C348.18 23.195 320.53 -0.897058 296.964 0.0256409C273.398 0.948339 248.211 27.1091 249.73 58.1041C251.135 86.7938 275.98 109.512 297.269 112.046C297.049 112.237 296.871 112.464 296.746 112.715L294.629 117.211C294.467 117.554 294.407 117.928 294.452 118.297C294.498 118.667 294.649 119.02 294.89 119.323C295.132 119.626 295.455 119.869 295.831 120.028C296.207 120.188 296.622 120.259 297.037 120.234L308.639 119.557C309.054 119.533 309.456 119.414 309.805 119.212C310.154 119.01 310.44 118.732 310.636 118.404C310.831 118.075 310.929 117.708 310.92 117.336C310.912 116.964 310.797 116.6 310.587 116.279L307.834 112.068C307.734 111.923 307.616 111.789 307.481 111.669C328.511 107.559 351.108 82.9421 349.699 54.19Z" fill="#009FE3"/>
<path d="M318.049 23.5664C325.54 29.8731 330.036 38.5099 330.609 47.6939C331.183 56.8779 327.789 65.9081 321.13 72.9204C319.625 74.5397 322.661 76.3713 324.155 74.7626C331.23 67.1418 334.821 57.4118 334.206 47.5239C333.591 37.6361 328.817 28.3215 320.841 21.4482C319.157 19.9992 316.353 22.1066 318.049 23.5664Z" fill="white"/>
<path d="M351.604 323.655C379.07 323.655 401.336 303.753 401.336 279.203C401.336 254.652 379.07 234.75 351.604 234.75C324.138 234.75 301.873 254.652 301.873 279.203C301.873 303.753 324.138 323.655 351.604 323.655Z" fill="#009FE3"/>
<path d="M349.345 561.06H335.63C334.028 561.059 332.493 560.489 331.361 559.477C330.229 558.465 329.592 557.093 329.59 555.661V453.487C329.592 452.056 330.229 450.684 331.361 449.672C332.493 448.659 334.028 448.09 335.63 448.089H349.344C350.946 448.09 352.481 448.659 353.613 449.672C354.746 450.684 355.383 452.056 355.384 453.487V555.661C355.383 557.093 354.746 558.465 353.613 559.477C352.481 560.489 350.946 561.059 349.345 561.06Z" fill="#009FE3"/>
<path d="M393.276 561.06H379.561C377.96 561.059 376.425 560.489 375.293 559.477C374.16 558.465 373.523 557.093 373.521 555.661V453.487C373.523 452.056 374.16 450.684 375.293 449.672C376.425 448.659 377.96 448.09 379.561 448.089H393.276C394.877 448.09 396.413 448.659 397.545 449.672C398.677 450.684 399.314 452.056 399.316 453.487V555.661C399.314 557.093 398.677 558.465 397.545 559.477C396.413 560.489 394.877 561.059 393.276 561.06Z" fill="#009FE3"/>
<path d="M315.054 365.61L309.171 376.684C308.482 377.976 307.248 378.971 305.74 379.451C304.231 379.931 302.571 379.857 301.124 379.244L197.869 335.414C196.423 334.799 195.309 333.696 194.772 332.347C194.235 330.999 194.318 329.515 195.004 328.221L200.887 317.148C201.575 315.855 202.809 314.86 204.318 314.38C205.826 313.9 207.486 313.974 208.934 314.587L312.189 358.417C313.635 359.033 314.748 360.136 315.286 361.484C315.823 362.832 315.739 364.316 315.054 365.61Z" fill="#009FE3"/>
<path d="M330.61 371.546C330.902 372.803 330.678 374.113 329.98 375.236L323.351 385.967C322.576 387.22 321.276 388.146 319.737 388.543C318.199 388.94 316.547 388.775 315.144 388.085L266.622 368.965C265.221 368.272 264.185 367.11 263.741 365.735C263.297 364.359 263.482 362.883 264.254 361.629L276.413 341.297C276.796 340.676 277.313 340.129 277.933 339.687C278.553 339.245 279.264 338.916 280.026 338.719C280.788 338.523 281.586 338.462 282.374 338.541C283.162 338.62 283.925 338.838 284.62 339.18L328.199 364.93C329.611 365.627 330.048 369.744 330.496 371.129C330.541 371.267 330.578 371.407 330.61 371.546Z" fill="#2F2E41"/>
<path d="M390.269 358.417L493.524 314.587C494.972 313.974 496.632 313.9 498.14 314.38C499.649 314.86 500.883 315.855 501.571 317.148L507.455 328.221C508.14 329.515 508.223 330.999 507.686 332.347C507.149 333.696 506.035 334.799 504.59 335.414L401.334 379.244C399.887 379.857 398.227 379.931 396.718 379.451C395.21 378.971 393.976 377.976 393.287 376.684L387.404 365.61C386.719 364.316 386.635 362.832 387.173 361.484C387.71 360.136 388.823 359.033 390.269 358.417Z" fill="#009FE3"/>
<path d="M371.962 371.129C372.41 369.744 372.847 365.627 374.259 364.93L417.838 339.18C418.532 338.838 419.295 338.62 420.083 338.541C420.872 338.462 421.67 338.523 422.432 338.719C423.194 338.916 423.905 339.245 424.525 339.687C425.145 340.129 425.661 340.676 426.044 341.297L438.203 361.629C438.976 362.883 439.161 364.359 438.717 365.735C438.273 367.11 437.237 368.272 435.836 368.965L387.314 388.085C385.911 388.775 384.259 388.94 382.72 388.543C381.182 388.146 379.882 387.22 379.106 385.967L372.478 375.236C371.78 374.113 371.556 372.804 371.847 371.546C371.879 371.407 371.917 371.267 371.962 371.129Z" fill="#2F2E41"/>
<path d="M344.985 295.678L344.934 294.017C348.391 293.931 351.439 293.737 353.729 292.242C354.379 291.794 354.913 291.226 355.294 290.577C355.676 289.928 355.897 289.213 355.942 288.481C355.983 288.033 355.907 287.583 355.721 287.167C355.535 286.75 355.244 286.376 354.871 286.076C353.351 284.929 350.904 285.3 349.121 286.031L347.583 286.661L350.532 267.399L352.373 267.625L349.865 284.01C350.892 283.669 351.998 283.564 353.081 283.703C354.165 283.843 355.193 284.222 356.071 284.808C356.661 285.268 357.124 285.845 357.424 286.492C357.724 287.139 357.853 287.84 357.799 288.539C357.745 289.523 357.451 290.484 356.937 291.355C356.423 292.227 355.703 292.987 354.826 293.583C351.883 295.506 348.058 295.601 344.985 295.678Z" fill="#2F2E41"/>
<path d="M371.488 269.038H361.479V270.699H371.488V269.038Z" fill="#2F2E41"/>
<path d="M339.894 269.038H329.885V270.699H339.894V269.038Z" fill="#2F2E41"/>
<path d="M368.749 344.432H370.754C371.556 344.433 372.35 344.293 373.091 344.019C373.833 343.745 374.506 343.344 375.074 342.837C375.641 342.331 376.091 341.729 376.398 341.067C376.705 340.405 376.863 339.695 376.863 338.978C376.863 338.261 376.705 337.552 376.398 336.889C376.091 336.227 375.641 335.626 375.074 335.119C374.506 334.613 373.833 334.211 373.091 333.937C372.35 333.664 371.556 333.523 370.754 333.524H331.704C330.087 333.526 328.537 334.102 327.395 335.124C326.252 336.147 325.61 337.533 325.61 338.978C325.61 340.423 326.252 341.81 327.395 342.832C328.537 343.855 330.087 344.43 331.704 344.432H335.372C304.033 357.177 283.924 404.255 283.924 433.593C283.924 467.77 311.519 478.794 352.062 478.794C392.604 478.794 430.741 467.77 430.741 433.593C430.741 404.255 402.415 357.177 368.749 344.432Z" fill="#2F2E41"/>
<path d="M349.556 253.816C348.344 250.524 343.973 249.514 340.609 250.756C336.664 252.212 334.427 255.819 330.616 257.524C323.763 260.591 314.671 258.944 309.446 254.028C303.732 248.652 302.607 240.264 305.483 233.477C308.457 226.457 315.834 221.377 323.732 219.314C334.228 216.572 345.488 219.088 354.579 224.145C354.822 224.269 355.093 224.342 355.372 224.358C355.651 224.374 355.93 224.334 356.189 224.24C356.448 224.146 356.68 224 356.866 223.814C357.053 223.629 357.191 223.407 357.268 223.167C359.768 214.63 370.552 212.145 379.217 213.061C387.769 214.114 395.905 217.016 402.919 221.516C416.466 229.964 426.016 243.724 427.353 258.538C427.996 266.158 426.768 273.811 423.755 280.961C420.742 288.112 416.017 294.588 409.911 299.935C406.857 302.569 403.298 304.641 400.185 307.207C397.349 309.546 394.553 312.622 394.61 316.261C394.74 324.63 407.06 326.939 414.352 327.19C423.403 327.551 432.291 324.954 439.355 319.883C446.419 314.812 451.176 307.615 452.735 299.638C453.124 297.696 453.325 295.728 453.337 293.755C453.347 291.649 449.687 291.646 449.676 293.755C449.607 301.708 446.106 309.33 439.903 315.032C436.714 317.891 432.919 320.152 428.739 321.682C424.56 323.212 420.08 323.98 415.564 323.941C409.743 323.916 393.973 321.449 399.258 313.218C401.325 310 405.033 307.809 408.229 305.57C411.555 303.234 414.574 300.57 417.23 297.628C422.579 291.724 426.522 284.905 428.816 277.589C431.111 270.274 431.708 262.617 430.572 255.088C428.212 240.331 418.203 226.998 404.586 218.578C391.622 210.561 367.659 203.471 356.328 217.361C355.127 218.847 354.249 220.522 353.738 222.297L356.427 221.32C347.668 216.447 337.228 213.92 326.934 215.329C322.503 215.926 318.256 217.325 314.45 219.439C310.645 221.554 307.363 224.341 304.804 227.628C302.35 230.935 300.848 234.731 300.432 238.682C300.015 242.632 300.696 246.613 302.415 250.271C304.099 253.775 306.874 256.773 310.41 258.907C313.946 261.041 318.094 262.222 322.359 262.308C326.979 262.474 331.524 261.231 335.248 258.782C337.333 257.361 338.935 255.349 341.192 254.138C342.485 253.445 345.39 252.959 346.026 254.686C346.759 256.677 350.296 255.824 349.556 253.816Z" fill="#2F2E41"/>
<path d="M432.534 92.2738C441.617 92.7854 450.436 95.2138 458.267 99.3601C466.098 103.506 472.718 109.252 477.585 116.127C478.949 118.076 480.73 120.218 479.785 122.617C479.457 123.537 478.788 124.33 477.89 124.866C476.991 125.402 475.916 125.65 474.84 125.57C472.056 125.267 470.259 122.833 469.916 120.5C469.527 117.854 471.616 115.777 474.194 114.794C480.494 112.392 486.85 116.104 491.982 119.067C503.675 125.818 516.537 131.923 530.706 132.693C543.816 133.405 557.874 128.81 565.166 118.648C566.441 116.87 563.274 115.227 562.005 116.996C554.773 127.075 540.153 130.694 527.442 129.136C519.867 128.068 512.553 125.848 505.816 122.573C502.322 120.953 498.933 119.156 495.613 117.267C492.454 115.297 489.105 113.581 485.606 112.14C479.771 109.997 472.047 110.165 467.971 115.098C464.169 119.699 467.108 127.361 473.467 128.655C479.494 129.881 484.775 124.814 483.534 119.516C482.9 116.806 480.617 114.154 478.849 111.939C473.54 105.263 466.623 99.7365 458.607 95.7668C450.591 91.797 441.681 89.4852 432.533 89.0015C430.179 88.8974 430.185 92.17 432.534 92.2738Z" fill="#CCCCCC"/>
<path d="M132.929 143.67C123.846 143.158 115.027 140.73 107.196 136.583C99.3647 132.437 92.7444 126.691 87.8776 119.816C86.5137 117.867 84.7332 115.725 85.6774 113.327C86.0063 112.407 86.6746 111.614 87.573 111.078C88.4714 110.541 89.5467 110.293 90.6233 110.374C93.4071 110.677 95.2035 113.111 95.5465 115.443C95.9355 118.089 93.8473 120.166 91.2691 121.149C84.969 123.551 78.6127 119.839 73.4809 116.876C61.7875 110.125 48.9259 104.02 34.7568 103.251C21.6471 102.539 7.58894 107.134 0.297142 117.295C-0.978584 119.073 2.1889 120.716 3.4583 118.947C10.69 108.869 25.3093 105.249 38.0207 106.807C45.5958 107.876 52.9103 110.095 59.6473 113.37C63.1411 114.991 66.5297 116.787 69.8497 118.676C73.009 120.647 76.3577 122.362 79.8564 123.804C85.6914 125.946 93.4157 125.779 97.4915 120.846C101.294 116.244 98.3553 108.583 91.9956 107.289C85.9685 106.063 80.6883 111.13 81.9288 116.427C82.5633 119.137 84.8463 121.789 86.6134 124.004C91.9228 130.681 98.8401 136.207 106.856 140.177C114.872 144.147 123.782 146.458 132.93 146.942C135.284 147.046 135.278 143.774 132.929 143.67Z" fill="#CCCCCC"/>
<path d="M676.483 562H98.517C98.1146 562 97.7288 561.895 97.4443 561.707C97.1598 561.52 97 561.265 97 561C97 560.735 97.1598 560.48 97.4443 560.293C97.7288 560.105 98.1146 560 98.517 560H676.483C676.885 560 677.271 560.105 677.556 560.293C677.84 560.48 678 560.735 678 561C678 561.265 677.84 561.52 677.556 561.707C677.271 561.895 676.885 562 676.483 562Z" fill="#3F3D56"/>
</svg>
