<svg width="12" height="13" viewBox="0 0 12 13" fill="none" xmlns="http://www.w3.org/2000/svg">
<g clip-path="url(#clip0_521_7339)">
<path d="M10.5 5.25C10.5 8.75 6 11.75 6 11.75C6 11.75 1.5 8.75 1.5 5.25C1.5 4.05653 1.97411 2.91193 2.81802 2.06802C3.66193 1.22411 4.80653 0.75 6 0.75C7.19347 0.75 8.33807 1.22411 9.18198 2.06802C10.0259 2.91193 10.5 4.05653 10.5 5.25Z" stroke="black" stroke-linecap="round" stroke-linejoin="round"/>
<path d="M6 6.75C6.82843 6.75 7.5 6.07843 7.5 5.25C7.5 4.42157 6.82843 3.75 6 3.75C5.17157 3.75 4.5 4.42157 4.5 5.25C4.5 6.07843 5.17157 6.75 6 6.75Z" stroke="black" stroke-linecap="round" stroke-linejoin="round"/>
</g>
<defs>
<clipPath id="clip0_521_7339">
<rect width="12" height="12" fill="white" transform="translate(0 0.25)"/>
</clipPath>
</defs>
</svg>
