<svg width="18" height="15" viewBox="0 0 18 15" fill="none" xmlns="http://www.w3.org/2000/svg">
<path d="M18 4.02811V11.9737C18 13.3474 16.8868 14.4605 15.5132 14.4605H2.48684C1.82729 14.4605 1.19475 14.1985 0.728379 13.7321C0.262006 13.2658 0 12.6332 0 11.9737V4.02811L8.71484 8.82179C8.89247 8.91937 9.108 8.91937 9.28516 8.82179L18 4.02763V4.02811ZM15.5132 0.25C16.1623 0.25006 16.7858 0.503967 17.2502 0.957483C17.7147 1.411 17.9835 2.02817 17.9991 2.67716L9 7.62716L0.0009473 2.67668L0.00189483 2.63405C0.0284224 1.99281 0.301835 1.38664 0.764957 0.942326C1.22808 0.498007 1.84505 0.249941 2.48684 0.25H15.5132Z" fill="#009FE3"/>
</svg>
