<svg width="18" height="19" viewBox="0 0 18 19" fill="none" xmlns="http://www.w3.org/2000/svg">
<path d="M9 0.25C4 0.25 0 4.25 0 9.25C0 14.25 4 18.25 9 18.25C14 18.25 18 14.25 18 9.25C18 4.25 14 0.25 9 0.25ZM9 7.25C10.1 7.25 11 8.15 11 9.25C11 10.35 10.1 11.25 9 11.25C7.9 11.25 7 10.35 7 9.25C7 8.15 7.9 7.25 9 7.25ZM11.8 5.25C11.8 4.55 12.4 4.05 13 4.05C13.6 4.05 14.2 4.65 14.2 5.25C14.2 5.85 13.7 6.45 13 6.45C12.3 6.45 11.8 5.95 11.8 5.25V5.25ZM9 16.25C5.1 16.25 2 13.15 2 9.25H5C5 11.45 6.8 13.25 9 13.25C11.2 13.25 13 11.45 13 9.25H16C16 13.15 12.9 16.25 9 16.25Z" fill="#009FE3"/>
</svg>
