<svg width="18" height="15" viewBox="0 0 18 15" fill="none" xmlns="http://www.w3.org/2000/svg">
<path d="M18 1.98198C17.4988 2.72755 16.8838 3.36312 16.1551 3.88868C16.1623 4.02964 16.1659 4.18895 16.1659 4.36662C16.1659 5.35381 16.022 6.34218 15.7342 7.33176C15.4463 8.32134 15.0066 9.26854 14.4151 10.1734C13.8235 11.0782 13.1189 11.8798 12.3012 12.5782C11.4834 13.2765 10.5005 13.8334 9.35231 14.2487C8.20414 14.664 6.97361 14.8717 5.66072 14.8717C3.61175 14.8717 1.72484 14.3185 0 13.2122C0.306138 13.2463 0.59975 13.2633 0.880837 13.2633C2.59259 13.2633 4.12147 12.7361 5.46746 11.6816C4.66934 11.6669 3.95456 11.4213 3.32313 10.9445C2.6917 10.4678 2.25717 9.85861 2.01953 9.11699C2.25442 9.16173 2.48625 9.1841 2.71502 9.1841C3.04432 9.1841 3.36834 9.14115 3.6871 9.05525C2.83536 8.88467 2.12876 8.46044 1.56732 7.78259C1.0059 7.10474 0.72519 6.32237 0.72519 5.43548V5.38977C1.24799 5.67924 1.80564 5.83321 2.39814 5.8517C1.89358 5.51532 1.49353 5.07668 1.19801 4.53576C0.902467 3.99485 0.754696 3.40949 0.754696 2.77968C0.754696 2.11543 0.921144 1.4969 1.25404 0.924072C2.18029 2.06073 3.30264 2.96918 4.62108 3.64943C5.93954 4.32969 7.354 4.70748 8.86446 4.78281C8.80003 4.51433 8.76776 4.23415 8.76765 3.94229C8.76765 2.9232 9.12828 2.05304 9.84956 1.33183C10.5708 0.610609 11.441 0.25 12.4601 0.25C13.5271 0.25 14.4258 0.638502 15.1562 1.41551C15.9908 1.25019 16.7723 0.951186 17.5006 0.518483C17.22 1.40153 16.6793 2.08274 15.8785 2.56212C16.6145 2.47466 17.3217 2.28128 18 1.98198H18Z" fill="#009FE3"/>
</svg>
