<svg width="58" height="57" viewBox="0 0 58 57" fill="none" xmlns="http://www.w3.org/2000/svg">
<ellipse cx="29" cy="28.5" rx="29" ry="28.5" fill="#E0CA04"/>
<path d="M16.7578 37V21H22.4609C23.7057 21 24.737 21.2266 25.5547 21.6797C26.3724 22.1328 26.9844 22.7526 27.3906 23.5391C27.7969 24.3203 28 25.2005 28 26.1797C28 27.1641 27.7943 28.0495 27.3828 28.8359C26.9766 29.6172 26.362 30.237 25.5391 30.6953C24.7214 31.1484 23.6927 31.375 22.4531 31.375H18.5313V29.3281H22.2344C23.0208 29.3281 23.6589 29.1927 24.1484 28.9219C24.638 28.6458 24.9974 28.2708 25.2266 27.7969C25.4557 27.3229 25.5703 26.7839 25.5703 26.1797C25.5703 25.5755 25.4557 25.0391 25.2266 24.5703C24.9974 24.1016 24.6354 23.7344 24.1406 23.4688C23.651 23.2031 23.0052 23.0703 22.2031 23.0703H19.1719V37H16.7578ZM30.4844 37H27.9219L33.6797 21H36.4688L42.2266 37H39.6641L35.1406 23.9062H35.0156L30.4844 37ZM30.9141 30.7344H39.2266V32.7656H30.9141V30.7344Z" fill="black"/>
</svg>
